<?xml version="1.0" encoding="UTF-8"?>
<svg version="1.1" xmlns="http://www.w3.org/2000/svg" width="512" height="512">
<path d="M0 0 C31.41695147 18.03529165 61.81378948 44.44029627 84 73 C84.90037875 74.09124555 85.80425103 75.17961469 86.7109375 76.265625 C105.46566669 98.88933678 129.67490932 130.77393687 128.21484375 161.9609375 C127.23436138 171.26660657 124.24297475 178.04520417 117.296875 184.51953125 C108.32013852 191.70479688 97.17415307 194.92787027 85.8125 193.8125 C81.85154076 193.32810695 77.93094144 192.68415841 74 192 C72.80584473 191.80148437 71.61168945 191.60296875 70.38134766 191.3984375 C52.91016127 188.44091863 35.86583958 184.47972164 19 179 C18.14438477 178.72575195 17.28876953 178.45150391 16.40722656 178.16894531 C-20.45337642 166.23381003 -57.2235278 148.25957958 -86 122 C-86.88429688 121.23429688 -87.76859375 120.46859375 -88.6796875 119.6796875 C-94.59858371 114.51639506 -99.92478255 108.99254555 -105 103 C-105.56332031 102.35933594 -106.12664062 101.71867187 -106.70703125 101.05859375 C-109.01471837 98.21689638 -110.03412515 96.59827129 -109.82275391 92.89257812 C-108.83467522 88.21782247 -107.35686734 83.88462327 -105.7109375 79.40625 C-105.3754892 78.47785309 -105.04004089 77.54945618 -104.69442749 76.59292603 C-103.5954172 73.55917709 -102.48585627 70.5294296 -101.375 67.5 C-100.60831742 65.39700219 -99.84171671 63.29397453 -99.07519531 61.19091797 C-94.3674771 48.30774268 -89.59439835 35.44848086 -84.70635986 22.63256836 C-84.07515113 20.97754382 -83.44583834 19.32179478 -82.81854248 17.6652832 C-73.0136685 -8.17223249 -73.0136685 -8.17223249 -63.30102539 -12.81152344 C-42.2693665 -21.56668994 -18.36754979 -9.97146362 0 0 Z M-52.375 10.3125 C-55.12803896 14.8656029 -54.10525766 18.95166098 -53 24 C-45.89641713 48.27707993 -30.51681765 69.24406034 -14 88 C-13.38769531 88.7115625 -12.77539062 89.423125 -12.14453125 90.15625 C-2.10848056 101.78948691 8.30438699 113.01788395 20 123 C20.91136719 123.80050781 21.82273437 124.60101563 22.76171875 125.42578125 C40.98127718 141.31401038 70.28000144 166.85033957 96.0703125 165.92578125 C99.32347645 165.6492351 99.32347645 165.6492351 102 164 C105.0085792 142.25227039 87.75920886 118.89942574 75.34375 102.4453125 C73.07049631 99.4848152 70.73979397 96.57490796 68.37695312 93.68554688 C67.07867073 92.09630191 65.79659759 90.49385485 64.515625 88.890625 C57.67247669 80.50216609 50.0653464 72.85384259 42.4375 65.1875 C41.90678894 64.65152191 41.37607788 64.11554382 40.82928467 63.56332397 C33.89072711 56.57161945 26.75828675 50.09218882 19 44 C18.28626221 43.42693115 17.57252441 42.8538623 16.8371582 42.26342773 C-15.19964443 15.99385491 -15.19964443 15.99385491 -52.375 10.3125 Z " fill="#000000" transform="translate(209,191)"/>
<path d="M0 0 C4.1365286 3.42341393 8.01921897 6.96314664 11.72827148 10.84472656 C19.77059048 19.23401589 28.55432412 26.25756422 38 33 C38.61955566 33.4429541 39.23911133 33.8859082 39.87744141 34.34228516 C78.52557289 61.6572692 122.65865246 77.82366826 168 90 C168 90.66 168 91.32 168 92 C167.45337204 92.19743301 166.90674408 92.39486603 166.34355164 92.59828186 C160.54981792 94.69101892 154.75639453 96.78461341 148.96313477 98.87866211 C146.81347144 99.65556585 144.66373429 100.43226537 142.51391602 101.20874023 C140.4256482 101.96301301 138.33752311 102.71768107 136.24954224 103.4727478 C134.17397645 104.2228133 132.09786433 104.97136868 130.02120972 105.71841431 C125.16063974 107.47137279 120.31559 109.25107097 115.49853516 111.12060547 C114.64371048 111.44854599 113.7888858 111.77648651 112.90815735 112.11436462 C111.33524987 112.7202841 109.76627344 113.33656779 108.20256042 113.96583557 C101.38987584 116.57570682 95.49634966 116.47480371 88.3046875 115.1171875 C87.27037598 114.92278076 86.23606445 114.72837402 85.17041016 114.52807617 C84.0829248 114.31256104 82.99543945 114.0970459 81.875 113.875 C80.73208496 113.64981689 79.58916992 113.42463379 78.41162109 113.19262695 C41.52647349 105.73222094 4.04213205 92.58221461 -19.734375 61.73828125 C-22.06739811 56.69059852 -20.04217145 51.86071619 -18.26586914 46.86254883 C-17.52973424 44.89125014 -16.78573522 42.92287568 -16.03515625 40.95703125 C-15.64178574 39.91101242 -15.24841522 38.86499359 -14.84312439 37.78727722 C-14.01341108 35.58487335 -13.18029814 33.38374757 -12.34399414 31.18383789 C-11.06383805 27.81602012 -9.79371341 24.44455543 -8.52539062 21.07226562 C-7.71672582 18.92946853 -6.90750022 16.78688297 -6.09765625 14.64453125 C-5.52725365 13.13352592 -5.52725365 13.13352592 -4.94532776 11.59199524 C-4.40983559 10.18484505 -4.40983559 10.18484505 -3.86352539 8.74926758 C-3.55121475 7.92654861 -3.23890411 7.10382965 -2.91712952 6.25617981 C-2.04382925 4.10782192 -1.0674661 2.05774311 0 0 Z " fill="#000000" transform="translate(89,311)"/>
<path d="M0 0 C3.87020649 3.80534269 4.95132191 7.66900813 5.8125 12.875 C5.94591797 13.55691406 6.07933594 14.23882812 6.21679688 14.94140625 C7.02841375 19.49861332 7.24031205 23.46493833 6 28 C2.22716226 32.29826196 -2.30961101 33.10644852 -7.6875 34.1875 C-12.9860876 35.16171207 -12.9860876 35.16171207 -18 37 C-17.25234375 38.02738281 -16.5046875 39.05476563 -15.734375 40.11328125 C-2.01956233 59.2722833 -2.01956233 59.2722833 -2.61328125 70.67578125 C-3.76759963 77.61335131 -6.23969612 85.57690952 -12 90 C-20.82385206 95.19626843 -27.72466818 97.17242608 -37.8125 97.0625 C-38.99489258 97.05573242 -38.99489258 97.05573242 -40.20117188 97.04882812 C-42.13414761 97.03711312 -44.06708393 97.01917998 -46 97 C-45.31292969 98.00160156 -44.62585938 99.00320312 -43.91796875 100.03515625 C-43.00750067 101.3773927 -42.09736192 102.71985258 -41.1875 104.0625 C-40.73568359 104.71927734 -40.28386719 105.37605469 -39.81835938 106.05273438 C-34.54820391 113.86179685 -31.22437654 121.38226906 -32 131 C-34.28102468 140.58902094 -38.7298377 147.65228684 -47.10546875 152.97265625 C-58.05556921 158.80033684 -71.45498911 163.76493969 -84 163 C-87 161.8125 -87 161.8125 -89 159 C-91.56814731 151.88318501 -94.75551061 141.2113849 -92.25390625 133.78515625 C-90.6990836 131.57159254 -89.70197401 131.18793749 -87.125 130.4375 C-85.93583984 130.08365234 -85.93583984 130.08365234 -84.72265625 129.72265625 C-80.66217098 128.64490908 -76.59125442 127.61937845 -72.50390625 126.6484375 C-70.02479723 126.09935643 -70.02479723 126.09935643 -68 125 C-68.74765625 123.97261719 -69.4953125 122.94523437 -70.265625 121.88671875 C-85.06115025 101.22050918 -85.06115025 101.22050918 -83 88 C-80.74365465 79.85543791 -77.08472104 73.63495062 -69.6875 69.25 C-62.72576626 65.38951918 -55.78010215 64.69971174 -48 64.875 C-47.22527344 64.88402344 -46.45054687 64.89304687 -45.65234375 64.90234375 C-43.76809157 64.92560612 -41.88400168 64.9614636 -40 65 C-40.68707031 63.99839844 -41.37414062 62.99679688 -42.08203125 61.96484375 C-42.99249933 60.6226073 -43.90263808 59.28014742 -44.8125 57.9375 C-45.26431641 57.28072266 -45.71613281 56.62394531 -46.18164062 55.94726562 C-51.45179609 48.13820315 -54.77562346 40.61773094 -54 31 C-51.71897532 21.41097906 -47.2701623 14.34771316 -38.89453125 9.02734375 C-27.90922673 3.18092744 -12.39846722 -3.21441743 0 0 Z " fill="#000000" transform="translate(315,31)"/>
<path d="M0 0 C2.5546875 0.921875 2.5546875 0.921875 5.3671875 2.921875 C9.25198561 12.73610181 3.90093935 26.38440744 0.05078125 35.7109375 C-4.02362618 44.8595921 -9.15606855 50.94066477 -17.8828125 55.859375 C-28.9137723 59.14931038 -36.8726401 57.57250718 -46.90234375 52.36328125 C-50.89834842 50.09826478 -54.68917924 47.56205562 -58.4453125 44.921875 C-58.48269531 45.96085937 -58.52007812 46.99984375 -58.55859375 48.0703125 C-59.07789752 59.98282636 -60.24610388 70.57773184 -68.4453125 79.921875 C-74.65909662 85.10002843 -81.93366127 87.48179286 -90.0078125 87.22265625 C-100.41246522 85.93874878 -108.26161365 79.94340341 -116.4453125 73.921875 C-117.4353125 73.261875 -118.4253125 72.601875 -119.4453125 71.921875 C-121.22659757 77.01126092 -122.68790635 81.96059779 -123.8203125 87.234375 C-124.69976701 90.71665952 -125.34658141 92.78303441 -127.4453125 95.734375 C-132.24776383 97.63534532 -136.445348 96.81061549 -141.4453125 95.921875 C-142.51523437 95.73238281 -143.58515625 95.54289062 -144.6875 95.34765625 C-149.08800831 94.4169864 -152.57111701 93.54352512 -156.2578125 90.921875 C-160.14261061 81.10764819 -154.79156435 67.45934256 -150.94140625 58.1328125 C-146.53803895 48.23505917 -141.01070904 41.47011472 -130.8203125 37.421875 C-122.81835417 34.92473128 -116.08017415 35.6028167 -108.4453125 38.921875 C-104.62682117 41.08133371 -100.98435146 43.50560645 -97.3515625 45.9609375 C-94.65901394 47.86900436 -94.65901394 47.86900436 -92.4453125 48.921875 C-92.40792969 47.89449219 -92.37054688 46.86710937 -92.33203125 45.80859375 C-91.78611778 33.34759107 -90.97982012 22.03547346 -81.4453125 12.921875 C-74.1054167 7.748053 -67.35155144 6.08809944 -58.4453125 6.921875 C-48.09569962 8.99498698 -39.79551258 15.84519238 -31.4453125 21.921875 C-29.34153062 15.84031135 -27.65486624 9.81589043 -26.2890625 3.5234375 C-25.40664452 0.80264872 -24.66078467 -0.32609344 -22.4453125 -2.078125 C-16.44027418 -5.08064416 -6.1486962 -1.69288779 0 0 Z " fill="#000000" transform="translate(475.4453125,193.078125)"/>
<path d="M0 0 C1.30582031 -0.01417969 2.61164063 -0.02835937 3.95703125 -0.04296875 C7.1875 0.1875 7.1875 0.1875 9.1875 2.1875 C9.41455078 4.34228516 9.41455078 4.34228516 9.3828125 6.9765625 C9.37314453 8.38808594 9.37314453 8.38808594 9.36328125 9.828125 C9.33814453 11.30539063 9.33814453 11.30539063 9.3125 12.8125 C9.30347656 13.80507812 9.29445313 14.79765625 9.28515625 15.8203125 C9.26154116 18.27628134 9.22860799 20.73177168 9.1875 23.1875 C5.23492787 25.3552856 1.55217151 25.64871253 -2.875 26 C-12.85547434 26.96486739 -22.24632714 29.22973145 -31.8125 32.1875 C-32.81265137 32.4961499 -32.81265137 32.4961499 -33.83300781 32.81103516 C-62.58280491 41.99317482 -88.63328085 60.03267616 -110.30175781 80.74414062 C-111.32502583 81.72176838 -112.35319027 82.69429224 -113.38574219 83.66210938 C-122.20040971 91.94628931 -129.57417429 100.96263275 -136.71191406 110.71972656 C-137.8125 112.1875 -137.8125 112.1875 -138.8125 113.1875 C-144.06650871 113.77042651 -146.72184172 112.4088951 -151 109.4375 C-152.53720703 108.39335937 -152.53720703 108.39335937 -154.10546875 107.328125 C-158.55478544 103.80976202 -158.55478544 103.80976202 -159.8125 101.1875 C-158.94420472 96.90240643 -157.20980722 94.00958966 -154.4375 90.6875 C-153.71949219 89.82511719 -153.00148438 88.96273437 -152.26171875 88.07421875 C-151.45347656 87.12160156 -150.64523437 86.16898437 -149.8125 85.1875 C-148.92252671 84.11121454 -148.03323096 83.03436855 -147.14453125 81.95703125 C-136.51405168 69.18912925 -124.98339555 57.34952717 -111.8125 47.1875 C-110.8328125 46.40246094 -109.853125 45.61742187 -108.84375 44.80859375 C-81.51515839 23.05122632 -49.47342837 6.79952048 -14.8125 1.1875 C-13.64589844 0.99542969 -12.47929687 0.80335937 -11.27734375 0.60546875 C-7.4940226 0.14908164 -3.81024002 0.01899422 0 0 Z " fill="#000000" transform="translate(454.8125,99.8125)"/>
<path d="M0 0 C3.19511539 2.69809744 6.35789151 5.38836802 9.38671875 8.2734375 C30.57180308 28.35018408 58.84946355 40.28899838 87 47 C87 47.66 87 48.32 87 49 C76.76583359 52.96670398 66.50912621 56.87283678 56.24694824 60.76635742 C53.30865575 61.88272961 50.37149297 63.00202948 47.43465233 64.12221432 C40.56720868 66.74117837 33.69459718 69.34596153 26.81497765 71.93278408 C23.31282639 73.25003644 19.81305274 74.57293175 16.31829834 75.90969849 C12.96654863 77.19143517 9.60906738 78.45689101 6.24692917 79.71111298 C4.39942187 80.40487575 2.55806353 81.11494507 0.71694946 81.82550049 C-13.96477199 87.25957543 -13.96477199 87.25957543 -20.86779785 84.16181946 C-24.55010567 81.54071222 -25.82229758 78.48048955 -26.78805542 74.18417358 C-27.15802332 70.37150656 -25.94997042 67.29141745 -24.59765625 63.76953125 C-24.32091568 62.99825394 -24.04417511 62.22697662 -23.75904846 61.43232727 C-22.86059599 58.94652409 -21.93163785 56.47353483 -21 54 C-20.38907585 52.33563193 -19.77954082 50.67075332 -19.17138672 49.00537109 C-17.29217937 43.88717248 -15.36708363 38.78687249 -13.4375 33.6875 C-12.78420517 31.95258691 -12.13120959 30.21756111 -11.47851562 28.48242188 C-9.93836468 24.39146729 -8.39168105 20.30303743 -6.84051514 16.21624756 C-6.04394378 14.11586976 -5.25060819 12.0142923 -4.45751953 9.91259766 C-4.00876465 8.73101074 -3.56000977 7.54942383 -3.09765625 6.33203125 C-2.71230713 5.31471924 -2.32695801 4.29740723 -1.92993164 3.24926758 C-1 1 -1 1 0 0 Z " fill="#000000" transform="translate(58,395)"/>
<path d="M0 0 C2.91419784 0.47904622 3.98295292 0.84776225 6.04467773 2.87988281 C6.8277832 3.65138672 6.8277832 3.65138672 7.62670898 4.43847656 C8.40981445 5.25638672 8.40981445 5.25638672 9.20874023 6.09082031 C10.02665039 6.87392578 10.02665039 6.87392578 10.86108398 7.67285156 C11.63258789 8.45595703 11.63258789 8.45595703 12.41967773 9.25488281 C12.88422363 9.72619629 13.34876953 10.19750977 13.82739258 10.68310547 C15.40732155 13.4819025 15.2990044 15.30334076 14.83374023 18.46582031 C13.21113868 20.69825995 11.73716463 22.42899918 9.79467773 24.33691406 C9.2762027 24.86350113 8.75772766 25.3900882 8.22354126 25.93263245 C7.12630267 27.03831386 6.02138786 28.13642375 4.90942383 29.22729492 C3.21189468 30.9002116 1.55191417 32.60495571 -0.10766602 34.31542969 C-1.17979373 35.38718699 -2.25394825 36.45692143 -3.33032227 37.52441406 C-4.07132675 38.29137856 -4.07132675 38.29137856 -4.82730103 39.07383728 C-7.43420395 41.57844277 -8.67178417 42.47326117 -12.34619141 42.41796875 C-16.04358496 41.16960628 -18.33400339 39.0319144 -20.97875977 36.27832031 C-21.71255859 35.57352539 -21.71255859 35.57352539 -22.46118164 34.85449219 C-25.75405959 31.51606959 -27.09572211 29.15333535 -27.16625977 24.46582031 C-25.57962873 22.17123603 -24.1972988 20.5355653 -22.22485352 18.62988281 C-21.70496353 18.10566742 -21.18507355 17.58145203 -20.64942932 17.04135132 C-19.54723493 15.93877599 -18.43628807 14.84489047 -17.31738281 13.75927734 C-15.61083249 12.09770662 -13.94164027 10.4043115 -12.27368164 8.70410156 C-11.19696973 7.63561127 -10.11825579 6.56913387 -9.03735352 5.50488281 C-8.54021347 4.99873444 -8.04307343 4.49258606 -7.53086853 3.97109985 C-5.02034558 1.57559404 -3.46728957 0.51010783 0 0 Z " fill="#000000" transform="translate(431.166259765625,33.5341796875)"/>
<path d="M0 0 C0.82290527 0.00202423 1.64581055 0.00404846 2.49365234 0.00613403 C3.33331543 0.00517731 4.17297852 0.00422058 5.03808594 0.00323486 C6.81689529 0.00255306 8.59570712 0.00440737 10.37451172 0.00857544 C13.10699011 0.01392371 15.83930411 0.00863048 18.57177734 0.00222778 C20.29573604 0.00288856 22.01969464 0.00416973 23.74365234 0.00613403 C24.56655762 0.0041098 25.38946289 0.00208557 26.23730469 0 C32.0037018 0.02399599 32.0037018 0.02399599 33.11865234 1.13894653 C33.21781805 2.76152198 33.24945011 4.38834485 33.25146484 6.01394653 C33.25339844 7.49121216 33.25339844 7.49121216 33.25537109 8.99832153 C33.25150391 10.03472778 33.24763672 11.07113403 33.24365234 12.13894653 C33.24945313 13.69355591 33.24945313 13.69355591 33.25537109 15.27957153 C33.25408203 16.26441528 33.25279297 17.24925903 33.25146484 18.26394653 C33.25033691 19.17402466 33.24920898 20.08410278 33.24804688 21.02175903 C33.11865234 23.13894653 33.11865234 23.13894653 32.11865234 24.13894653 C29.31871637 24.23997908 26.54396591 24.27864741 23.74365234 24.27175903 C22.90398926 24.27271576 22.06432617 24.27367249 21.19921875 24.2746582 C19.4204094 24.27534001 17.64159757 24.2734857 15.86279297 24.26931763 C13.13031458 24.26396936 10.39800058 24.26926259 7.66552734 24.27566528 C5.94156865 24.2750045 4.21761005 24.27372334 2.49365234 24.27175903 C1.67074707 24.27378326 0.8478418 24.2758075 0 24.27789307 C-5.76639711 24.25389708 -5.76639711 24.25389708 -6.88134766 23.13894653 C-6.98051336 21.51637109 -7.01214542 19.88954822 -7.01416016 18.26394653 C-7.01544922 17.27910278 -7.01673828 16.29425903 -7.01806641 15.27957153 C-7.01419922 14.24316528 -7.01033203 13.20675903 -7.00634766 12.13894653 C-7.01214844 10.58433716 -7.01214844 10.58433716 -7.01806641 8.99832153 C-7.01677734 8.01347778 -7.01548828 7.02863403 -7.01416016 6.01394653 C-7.01303223 5.10386841 -7.0119043 4.19379028 -7.01074219 3.25613403 C-6.74122645 -1.15375374 -3.72099442 0.01548436 0 0 Z " fill="#000000" transform="translate(382.88134765625,311.8610534667969)"/>
<path d="M0 0 C0.98484375 -0.00128906 1.9696875 -0.00257812 2.984375 -0.00390625 C4.02078125 -0.00003906 5.0571875 0.00382812 6.125 0.0078125 C7.67960938 0.00201172 7.67960938 0.00201172 9.265625 -0.00390625 C10.25046875 -0.00261719 11.2353125 -0.00132813 12.25 0 C13.16007812 0.00112793 14.07015625 0.00225586 15.0078125 0.00341797 C17.125 0.1328125 17.125 0.1328125 18.125 1.1328125 C18.22603255 3.93274847 18.26470088 6.70749894 18.2578125 9.5078125 C18.25924759 10.76730713 18.25924759 10.76730713 18.26071167 12.05224609 C18.26139348 13.83105545 18.25953917 15.60986727 18.25537109 17.38867188 C18.25002283 20.12115026 18.25531605 22.85346426 18.26171875 25.5859375 C18.26105797 27.3098962 18.25977681 29.03385479 18.2578125 30.7578125 C18.25983673 31.58071777 18.26186096 32.40362305 18.26394653 33.25146484 C18.23995054 39.01786196 18.23995054 39.01786196 17.125 40.1328125 C15.50242456 40.2319782 13.87560169 40.26361027 12.25 40.265625 C11.26515625 40.26691406 10.2803125 40.26820312 9.265625 40.26953125 C8.22921875 40.26566406 7.1928125 40.26179688 6.125 40.2578125 C4.57039062 40.26361328 4.57039062 40.26361328 2.984375 40.26953125 C1.99953125 40.26824219 1.0146875 40.26695313 0 40.265625 C-0.91007813 40.26449707 -1.82015625 40.26336914 -2.7578125 40.26220703 C-4.875 40.1328125 -4.875 40.1328125 -5.875 39.1328125 C-5.97603255 36.33287653 -6.01470088 33.55812606 -6.0078125 30.7578125 C-6.00876923 29.91814941 -6.00972595 29.07848633 -6.01071167 28.21337891 C-6.01139348 26.43456955 -6.00953917 24.65575773 -6.00537109 22.87695312 C-6.00002283 20.14447474 -6.00531605 17.41216074 -6.01171875 14.6796875 C-6.01105797 12.9557288 -6.00977681 11.23177021 -6.0078125 9.5078125 C-6.00983673 8.68490723 -6.01186096 7.86200195 -6.01394653 7.01416016 C-5.98478903 0.00741741 -5.98478903 0.00741741 0 0 Z " fill="#000000" transform="translate(181.875,63.8671875)"/>
</svg>
